HIERARCHY
ROOT mixamorig:Hips
{
  OFFSET 0.000000 0.000000 0.000000
  CHANNELS 6 Xposition Yposition Zposition Xrotation Yrotation Zrotation
  JOINT mixamorig:Spine
  {
    OFFSET 0.881470 21.810334 -9.076147
    CHANNELS 3 Xrotation Yrotation Zrotation
    JOINT mixamorig:Spine2
    {
      OFFSET 0.881470 21.810334 -9.076147
      CHANNELS 3 Xrotation Yrotation Zrotation
      JOINT mixamorig:Neck
      {
        OFFSET 0.000000 4.674388 0.000000
        CHANNELS 3 Xrotation Yrotation Zrotation
        JOINT mixamorig:Head
        {
          OFFSET 0.000000 4.678088 0.000000
          CHANNELS 3 Xrotation Yrotation Zrotation
          End Site
          {
            OFFSET 0.000000 1.403426 0.000000
          }
        }
      }
      JOINT mixamorig:LeftShoulder
      {
        OFFSET 15.792676 2.209392 -1.224738
        CHANNELS 3 Xrotation Yrotation Zrotation
        JOINT mixamorig:LeftArm
        {
          OFFSET 3.082085 -20.340128 -8.765461
          CHANNELS 3 Xrotation Yrotation Zrotation
          JOINT mixamorig:LeftForeArm
          {
            OFFSET -6.633304 3.932203 -15.582597
            CHANNELS 3 Xrotation Yrotation Zrotation
            JOINT mixamorig:LeftHand
            {
              OFFSET -2.474855 3.119097 -1.955211
              CHANNELS 3 Xrotation Yrotation Zrotation
              End Site
              {
                OFFSET -0.742457 0.935729 -0.586563
              }
            }
          }
        }
      }
      JOINT mixamorig:RightShoulder
      {
        OFFSET -15.792676 2.209392 1.224738
        CHANNELS 3 Xrotation Yrotation Zrotation
        JOINT mixamorig:RightArm
        {
          OFFSET -2.495612 -27.698627 -14.139695
          CHANNELS 3 Xrotation Yrotation Zrotation
          JOINT mixamorig:RightForeArm
          {
            OFFSET 9.302673 7.642058 -20.278665
            CHANNELS 3 Xrotation Yrotation Zrotation
            JOINT mixamorig:RightHand
            {
              OFFSET 4.807220 4.843324 -4.521461
              CHANNELS 3 Xrotation Yrotation Zrotation
              End Site
              {
                OFFSET 1.442166 1.452997 -1.356438
              }
            }
          }
        }
      }
    }
  }
  JOINT mixamorig:LeftUpLeg
  {
    OFFSET 10.328032 0.296165 2.790499
    CHANNELS 3 Xrotation Yrotation Zrotation
    JOINT mixamorig:LeftLeg
    {
      OFFSET 12.238276 -41.735834 -6.323935
      CHANNELS 3 Xrotation Yrotation Zrotation
      JOINT mixamorig:LeftFoot
      {
        OFFSET 10.293044 -35.926831 16.299592
        CHANNELS 3 Xrotation Yrotation Zrotation
        JOINT mixamorig:LeftToeBase
        {
          OFFSET 1.935367 -5.189186 -6.192034
          CHANNELS 3 Xrotation Yrotation Zrotation
          End Site
          {
            OFFSET 0.580610 -1.556756 -1.857610
          }
        }
      }
    }
  }
  JOINT mixamorig:RightUpLeg
  {
    OFFSET -10.328032 -0.296165 -2.790499
    CHANNELS 3 Xrotation Yrotation Zrotation
    JOINT mixamorig:RightLeg
    {
      OFFSET -6.716455 -33.878452 3.035436
      CHANNELS 3 Xrotation Yrotation Zrotation
      JOINT mixamorig:RightFoot
      {
        OFFSET -12.031321 -38.248560 17.087646
        CHANNELS 3 Xrotation Yrotation Zrotation
        JOINT mixamorig:RightToeBase
        {
          OFFSET -4.660299 -1.482713 -10.654258
          CHANNELS 3 Xrotation Yrotation Zrotation
          End Site
          {
            OFFSET -1.398090 -0.444814 -3.196277
          }
        }
      }
    }
  }
}
MOTION
Frames: 6
Frame Time: 0.083333
0.070933 0.194573 0.138402 -0.007522 -0.023626 -0.057485 0.000000 0.000000 0.000000 -22.440968 4.099187 1.753664 10.883475 -5.907528 9.473036 9.587247 -7.685443 8.435140 20.519967 -4.402917 -0.892325 2.786996 0.353678 0.442592 0.236771 0.076518 -0.530548 0.000000 0.000000 0.000000 24.476746 -4.445618 -0.166557 -1.952154 0.188845 0.461221 -0.008949 -0.137644 0.054514 0.000000 0.000000 0.000000 0.014938 0.018606 0.105185 0.767273 0.388217 0.328705 1.681182 0.504876 -0.313502 0.000000 0.000000 0.000000 -0.120845 0.043005 -0.005669 0.357702 -0.136054 -0.039106 -0.065301 -1.001766 0.184714 0.000000 0.000000 0.000000
0.070086 0.195226 0.134605 -0.002838 -0.020470 -0.049461 0.000000 0.000000 0.000000 -22.441092 4.095697 1.743198 10.884157 -5.925586 9.476556 9.583496 -7.704350 8.435303 20.500172 -4.411646 -0.868549 2.792383 0.351397 0.418860 0.150464 0.051501 -0.470046 0.000000 0.000000 0.000000 24.481134 -4.442087 -0.166467 -1.907071 0.198574 0.489994 -0.056169 -0.144839 0.033699 0.000000 0.000000 0.000000 -0.001737 0.012961 0.090232 0.722239 0.361021 0.306568 1.483387 0.478519 -0.315741 0.000000 0.000000 0.000000 -0.126882 0.040513 -0.008855 0.341292 -0.130136 -0.041913 -0.068581 -0.935943 0.182230 0.000000 0.000000 0.000000
0.068633 0.197023 0.127591 0.005498 -0.053037 -0.126951 0.000000 0.000000 0.000000 -22.441881 4.076893 1.818391 10.184765 -6.037825 9.325617 8.899736 -7.667411 8.314810 20.761667 -4.370261 -0.793477 4.313111 0.936705 -0.240683 0.102593 0.075445 -1.151630 0.000000 0.000000 0.000000 24.772831 -4.463952 -0.111745 -1.604069 0.644128 0.894010 -0.354066 -0.438299 0.038392 0.000000 0.000000 0.000000 -0.044142 0.026496 0.227068 1.977819 0.969964 0.821389 3.609461 1.250968 -0.906415 0.000000 0.000000 0.000000 -0.392398 0.114166 -0.028883 0.943437 -0.353913 -0.115910 -0.217514 -2.501762 0.510827 0.000000 0.000000 0.000000
0.067804 0.199882 0.121321 0.034168 -0.074222 -0.175204 -0.000000 0.000000 0.000000 -22.443686 4.032126 1.849783 9.578016 -6.240420 9.189553 8.284911 -7.742580 8.188386 20.938086 -4.354992 -0.615472 5.875000 1.369026 -1.044345 -0.744052 -0.015563 -1.236988 0.000000 0.000000 0.000000 25.164725 -4.470282 -0.043412 -0.754707 1.085700 1.598866 -1.112686 -0.694569 -0.048355 0.000000 0.000000 0.000000 -0.097573 0.036666 0.299730 2.814189 1.323134 1.093411 3.766926 1.452244 -1.299946 0.000000 0.000000 0.000000 -0.657576 0.175107 -0.038699 1.338594 -0.473842 -0.129566 -0.372035 -3.347566 0.711540 0.000000 0.000000 0.000000
0.067545 0.203807 0.115928 0.043599 -0.112172 -0.265657 -0.000000 0.000000 0.000000 -22.446593 3.961814 1.917949 9.021643 -6.401451 8.980049 7.739387 -7.778935 7.998491 21.224168 -4.246548 -0.558058 7.354331 1.450573 -1.802112 -1.740123 0.117386 -1.145140 0.000000 0.000000 0.000000 25.706458 -4.513419 0.124728 0.533762 1.478291 2.447034 -2.124552 -0.830650 -0.060254 0.000000 0.000000 0.000000 0.076963 0.118570 0.458693 3.450703 1.557286 1.181871 3.134185 0.984369 -1.251366 0.000000 0.000000 0.000000 -0.824235 0.236238 -0.008741 1.546395 -0.484393 -0.004332 -0.413688 -3.833462 0.706913 0.000000 0.000000 0.000000
0.067594 0.208006 0.111553 0.088530 -0.142569 -0.334929 0.000000 0.000000 0.000000 -22.452636 3.809245 1.927230 8.330291 -6.545452 8.575249 7.091853 -7.756109 7.630629 21.484648 -4.042533 -0.510198 8.288759 0.975416 -2.486815 -2.429820 0.583789 -1.150384 0.000000 0.000000 0.000000 26.361582 -4.647486 0.592965 1.918003 2.219695 3.187604 -3.348265 -1.121933 -0.290633 0.000000 0.000000 0.000000 0.305108 0.211304 0.648689 3.758817 1.631682 1.045292 2.191044 0.152785 -0.831418 0.000000 0.000000 0.000000 -0.881243 0.260005 -0.017900 1.499051 -0.419783 0.164050 -0.198485 -4.054555 0.562463 0.000000 0.000000 0.000000
